<mxfile host="app.diagrams.net" modified="2024-06-08T14:34:43.562Z" agent="Mozilla/5.0 (Macintosh; Intel Mac OS X 10_15_7) AppleWebKit/537.36 (KHTML, like Gecko) Chrome/125.0.0.0 Safari/537.36" version="24.5.2" etag="A8WiqXx7rKc-Z0BMe4wu" type="github">
  <diagram name="Page-1" id="oPRLtAukUlgjeqhqOHua">
    <mxGraphModel>
      <root>
        <mxCell id="0" />
        <mxCell id="1" parent="0" />
      </root>
    </mxGraphModel>
  </diagram>
</mxfile>
